<?xml version="1.0" encoding="UTF-8"?>
<svg xmlns="http://www.w3.org/2000/svg" xmlns:xlink="http://www.w3.org/1999/xlink" width="14px" height="14px" viewBox="0 0 14 14" version="1.1">
<g id="surface1">
<path style=" stroke:none;fill-rule:nonzero;fill:rgb(0%,0%,0%);fill-opacity:1;" d="M 4.183594 12.050781 C 3.65625 11.628906 3.082031 11.230469 2.6875 10.664062 C 1.878906 9.660156 1.25 8.503906 0.8125 7.292969 C 0.554688 6.5 0.464844 5.652344 0.128906 4.894531 C -0.21875 4.339844 0.191406 3.738281 0.792969 3.5625 C 1.058594 3.507812 1.53125 3.261719 0.964844 3.4375 C 0.457031 3.820312 0.402344 3.097656 0.929688 3.054688 C 1.285156 3.007812 1.421875 2.714844 1.292969 2.453125 C 0.910156 2.195312 2.222656 1.921875 1.566406 1.550781 C 0.875 0.800781 2.535156 0.65625 2.125 1.503906 C 2.023438 2.152344 3.28125 1.386719 2.988281 2.132812 C 3.28125 2.496094 4.101562 2.214844 4.074219 2.726562 C 4.511719 2.753906 4.65625 3.117188 5.058594 3.144531 C 5.476562 3.335938 6.242188 3.480469 6.378906 3.957031 C 5.96875 4.285156 5.003906 3.273438 4.957031 4.191406 C 5.085938 5.53125 5.050781 6.925781 5.542969 8.203125 C 5.777344 8.988281 6.34375 9.597656 6.855469 10.199219 C 7.347656 10.792969 8.003906 11.210938 8.675781 11.558594 C 9.269531 11.839844 9.90625 12.023438 10.554688 12.140625 C 10.808594 11.941406 11.273438 11.203125 11.683594 11.511719 C 11.703125 11.867188 10.875 12.25 11.640625 12.203125 C 12.09375 12.066406 12.414062 12.558594 12.777344 12.121094 C 13.125 12.523438 14.210938 11.859375 13.964844 12.6875 C 13.636719 12.90625 13.152344 12.777344 12.824219 13.070312 C 12.277344 12.796875 11.839844 13.316406 11.238281 13.242188 C 10.5625 13.371094 9.890625 13.417969 9.207031 13.417969 C 8.09375 13.324219 6.953125 13.289062 5.886719 12.90625 C 5.296875 12.734375 4.710938 12.386719 4.183594 12.050781 Z M 5.121094 12.460938 C 5.707031 12.707031 6.28125 12.980469 6.917969 13.050781 C 7.9375 13.199219 8.988281 13.417969 10 13.214844 C 9.542969 13.007812 9.058594 13.296875 8.605469 13.070312 C 8.058594 13.1875 7.464844 13.035156 6.898438 12.960938 C 6.261719 12.679688 5.578125 12.488281 4.984375 12.113281 C 4.238281 11.847656 5.367188 12.46875 5.570312 12.515625 C 6.035156 12.777344 5.058594 12.378906 4.921875 12.269531 C 4.53125 12.050781 4.476562 12.09375 4.875 12.324219 C 4.957031 12.367188 5.039062 12.414062 5.121094 12.460938 Z M 4.019531 11.675781 C 4.585938 11.886719 4.011719 11.273438 3.753906 11.3125 C 3.636719 11.109375 3.316406 10.984375 3.546875 10.875 C 3.136719 11.019531 3.117188 10.335938 2.917969 10.4375 C 2.488281 10.300781 2.753906 9.808594 2.234375 9.507812 C 2.1875 9.195312 1.714844 8.921875 1.566406 8.449219 C 1.503906 8.203125 1.039062 7.511719 1.320312 8.15625 C 1.566406 8.777344 1.988281 9.316406 2.34375 9.851562 C 2.617188 10.363281 2.945312 10.890625 3.445312 11.210938 C 3.617188 11.375 3.773438 11.621094 4.019531 11.675781 Z M 2.386719 9.878906 C 2.40625 9.796875 2.488281 10.070312 2.386719 9.878906 Z M 4.695312 11.921875 C 4.820312 11.867188 4.511719 11.847656 4.695312 11.921875 Z M 4.996094 12.03125 C 4.96875 11.875 4.859375 12.121094 4.996094 12.03125 Z M 5.386719 12.195312 C 5.570312 12.023438 5.105469 12.085938 5.386719 12.195312 Z M 6.042969 12.558594 C 6.152344 12.394531 5.6875 12.496094 6.042969 12.558594 Z M 4.777344 11.675781 C 5.058594 11.492188 4.410156 11.675781 4.777344 11.675781 Z M 5.066406 11.820312 C 5.058594 11.730469 4.96875 11.867188 5.066406 11.820312 Z M 6.507812 12.722656 C 6.734375 12.871094 7.855469 13.042969 7.15625 12.777344 C 7.035156 12.804688 5.851562 12.449219 6.507812 12.722656 Z M 4.21875 10.9375 C 4.191406 10.847656 3.855469 10.835938 4.21875 10.9375 Z M 4.894531 11.328125 C 5.066406 11.210938 4.53125 11.238281 4.894531 11.328125 Z M 5.449219 11.675781 C 5.707031 11.585938 5.050781 11.585938 5.449219 11.675781 Z M 3.945312 10.644531 C 4.21875 10.855469 5.039062 10.671875 4.367188 10.519531 C 4.054688 10.355469 3.355469 10.246094 3.828125 10.617188 Z M 5.832031 11.792969 C 5.953125 11.601562 5.359375 11.683594 5.832031 11.792969 Z M 5.257812 11.339844 C 5.925781 11.53125 4.703125 10.917969 5.09375 11.273438 L 5.1875 11.3125 Z M 6.417969 12.003906 C 7.046875 12.011719 5.84375 11.921875 6.417969 12.003906 Z M 3.699219 10.28125 C 3.683594 10.164062 3.546875 10.289062 3.699219 10.28125 Z M 7.472656 12.605469 C 7.492188 12.394531 7.273438 12.761719 7.472656 12.605469 Z M 4.777344 10.9375 C 4.738281 10.828125 4.585938 10.9375 4.777344 10.9375 Z M 3.765625 10.207031 C 4.128906 10.179688 3.273438 10.042969 3.765625 10.207031 Z M 2.5625 9.433594 C 2.515625 9.261719 2.167969 9.113281 2.5625 9.433594 Z M 5.714844 11.429688 C 5.652344 11.355469 5.6875 11.449219 5.714844 11.429688 Z M 7.683594 12.640625 C 7.675781 12.523438 7.574219 12.679688 7.683594 12.640625 Z M 5.542969 11.257812 C 5.578125 11.101562 5.230469 11.210938 5.542969 11.257812 Z M 4.082031 10.328125 C 4.347656 10.300781 3.644531 10.144531 4.082031 10.328125 Z M 6.554688 11.867188 C 6.972656 11.695312 6.144531 11.785156 6.554688 11.867188 Z M 5.269531 10.992188 C 5.75 11.054688 4.695312 10.664062 5.160156 10.957031 Z M 6.945312 12.023438 C 7.402344 11.75 7.246094 12.652344 7.710938 12.09375 C 8.167969 11.765625 7.320312 12.503906 7.875 12.160156 C 8.285156 11.886719 8.886719 12.285156 9.269531 12.414062 C 9.542969 12.40625 9.808594 12.652344 10.082031 12.503906 C 10.617188 12.359375 9.03125 12.285156 9.453125 12.03125 C 8.960938 12.167969 8.59375 11.859375 8.347656 11.539062 C 7.792969 11.410156 7.15625 11.128906 6.882812 10.644531 C 6.773438 10.453125 7.046875 10.664062 6.78125 10.371094 C 6.453125 10.070312 6.28125 9.734375 6.0625 9.378906 C 5.796875 9.234375 5.761719 8.8125 5.734375 9.359375 C 5.742188 9.015625 5.414062 8.785156 5.332031 8.878906 C 5.332031 8.550781 5.679688 8.714844 5.433594 8.46875 C 5.386719 8.121094 5.214844 7.765625 5.160156 7.375 C 5.078125 7.183594 5.148438 6.78125 4.886719 7.210938 C 4.785156 7.65625 4.847656 6.652344 5.003906 6.980469 C 5.195312 6.644531 4.929688 6.691406 4.921875 6.734375 C 5.050781 6.453125 5.003906 6.042969 4.886719 6.199219 C 4.957031 5.898438 4.996094 5.09375 4.785156 5.230469 C 4.914062 4.921875 5.023438 3.792969 4.476562 4.21875 C 4.246094 4.230469 3.863281 4.300781 3.671875 4.394531 C 4.257812 4.710938 3.617188 4.511719 3.382812 4.457031 C 3.355469 4.75 3.125 4.621094 2.835938 4.628906 C 3.300781 4.683594 2.605469 5.105469 2.34375 4.941406 C 1.996094 5.105469 2.644531 5.515625 2.351562 5.640625 C 2.386719 5.832031 1.824219 5.570312 1.867188 6.015625 C 1.53125 5.878906 1.824219 6.542969 1.988281 6.316406 C 2.5625 6.472656 2.386719 6.816406 2.40625 7.15625 C 2.304688 7.347656 1.941406 6.699219 2.324219 6.726562 C 2.023438 6.242188 1.996094 6.554688 1.75 6.78125 C 1.6875 6.789062 2.378906 7.101562 1.941406 7.246094 C 2.324219 7.300781 2.332031 7.636719 2.414062 7.847656 C 2.644531 8.085938 2.589844 7.582031 2.863281 7.867188 C 2.6875 7.621094 1.949219 7.15625 2.550781 7.300781 C 2.542969 7.046875 2.441406 6.835938 2.625 6.84375 C 2.808594 6.515625 2.433594 7.65625 2.84375 7.238281 C 2.953125 7.183594 2.980469 6.910156 3.191406 7.265625 C 3.480469 7.554688 3.289062 7.765625 2.878906 7.5 C 2.953125 7.746094 3.4375 7.839844 3.34375 8.238281 C 3.4375 8.585938 3.574219 8.457031 3.691406 8.429688 C 3.78125 8.769531 3.835938 8.523438 3.835938 8.367188 C 4.257812 8.449219 4.164062 8.703125 4.292969 8.878906 C 4.585938 9.003906 3.875 7.984375 4.375 8.566406 C 4.902344 9.042969 4.574219 9.242188 4.101562 9.167969 C 4.402344 9.140625 4.492188 9.570312 4.867188 9.550781 C 5.203125 9.714844 5.441406 10.335938 4.847656 10.070312 C 4.648438 9.890625 3.929688 9.671875 4.519531 10.015625 C 5.058594 10.261719 5.488281 10.417969 6.015625 10.726562 C 6.390625 11 6.542969 11.300781 6.691406 11.367188 C 6.371094 11.511719 5.742188 11.246094 6.214844 11.164062 C 5.914062 11.109375 5.585938 10.957031 5.871094 11.320312 C 6.105469 11.519531 6.71875 11.503906 6.828125 11.53125 C 6.734375 11.730469 6.570312 11.75 6.828125 11.757812 C 6.542969 11.914062 6.917969 11.941406 6.945312 12.023438 Z M 6.363281 10.382812 C 6.1875 10.199219 6.152344 9.863281 6.335938 10.164062 C 6.433594 10.199219 6.644531 10.710938 6.363281 10.382812 Z M 8.257812 11.585938 C 8.367188 11.574219 8.257812 11.667969 8.257812 11.585938 Z M 6.089844 9.945312 C 6.089844 9.671875 6.152344 10.152344 6.089844 9.945312 Z M 5.90625 9.6875 C 5.6875 9.269531 6.179688 9.808594 5.90625 9.6875 Z M 3.628906 8.121094 C 3.753906 8.085938 3.691406 8.339844 3.628906 8.121094 Z M 5.441406 9.097656 C 5.523438 8.804688 5.53125 9.34375 5.441406 9.097656 Z M 4.164062 8.210938 C 4.074219 8.046875 4.347656 8.359375 4.164062 8.210938 Z M 5.257812 8.558594 C 5.050781 8.101562 5.40625 8.3125 5.304688 8.640625 Z M 3.363281 7.300781 C 3.273438 7.144531 3.125 6.699219 3.171875 6.570312 C 3.21875 6.789062 3.636719 7.519531 3.382812 6.871094 C 3.089844 6.324219 3.726562 7.046875 3.792969 7.183594 C 3.820312 7.320312 3.609375 7.144531 3.753906 7.464844 C 3.492188 7.101562 3.601562 7.65625 3.363281 7.300781 Z M 2.78125 6.898438 C 2.808594 6.542969 2.917969 7.136719 2.78125 6.898438 Z M 3.042969 6.980469 C 3.171875 6.71875 3.253906 7.355469 3.042969 6.980469 Z M 2.414062 6.5 C 2.195312 6.28125 2.03125 6.078125 2.425781 6.363281 C 2.570312 6.371094 2.085938 5.90625 2.460938 6.214844 C 2.84375 6.289062 2.644531 6.84375 2.414062 6.5 Z M 2.742188 6.488281 C 2.871094 6.363281 2.808594 6.609375 2.742188 6.488281 Z M 2.945312 6.554688 C 2.753906 6.1875 3.179688 6.699219 2.945312 6.554688 Z M 2.542969 6.160156 C 1.90625 5.597656 3.335938 6.460938 2.644531 6.269531 Z M 4.355469 7.21875 C 4.082031 7.054688 4.285156 6.0625 4.375 6.746094 C 4.640625 6.652344 4.367188 7.089844 4.558594 7.089844 C 4.53125 7.363281 4.4375 7.464844 4.355469 7.21875 Z M 5.023438 7.621094 C 5.050781 7.320312 5.085938 7.820312 5.023438 7.621094 Z M 4.914062 7.5 C 4.941406 7.375 4.914062 7.648438 4.914062 7.5 Z M 2.660156 5.980469 C 2.261719 5.414062 3.847656 6.542969 2.925781 6.125 C 2.835938 6.097656 2.714844 6.089844 2.660156 5.980469 Z M 3.957031 6.664062 C 3.917969 6.1875 4.046875 6.746094 3.957031 6.664062 Z M 4.941406 7.292969 C 5.011719 7.027344 4.949219 7.472656 4.941406 7.292969 Z M 2.726562 5.761719 C 2.972656 5.714844 3.726562 6.1875 3.035156 5.898438 C 2.953125 5.816406 2.789062 5.851562 2.726562 5.761719 Z M 4.804688 6.800781 C 4.832031 6.316406 4.949219 6.507812 4.804688 6.871094 Z M 2.90625 5.597656 C 3.007812 5.449219 2.644531 4.941406 2.960938 5.414062 C 3.097656 5.523438 3.355469 5.597656 3.125 5.640625 C 3.480469 5.953125 3.035156 5.722656 2.90625 5.597656 Z M 4.703125 6.644531 C 4.765625 6.097656 4.757812 6.972656 4.703125 6.644531 Z M 2.699219 5.085938 C 2.78125 5.058594 2.742188 5.1875 2.699219 5.085938 Z M 3.171875 5.367188 C 3.289062 5.113281 3.390625 5.652344 3.171875 5.367188 Z M 4.492188 6.097656 C 4.484375 6.007812 4.511719 6.242188 4.492188 6.097656 Z M 4.410156 5.933594 C 4.230469 5.476562 4.585938 6.171875 4.410156 5.933594 Z M 4.300781 5.632812 C 4.265625 5.449219 4.402344 5.871094 4.300781 5.632812 Z M 4.484375 5.339844 C 4.355469 5.113281 4.640625 4.355469 4.675781 4.832031 C 4.539062 5.195312 4.640625 5.394531 4.730469 4.914062 C 4.902344 4.519531 4.695312 5.667969 4.484375 5.339844 Z M 4.675781 4.210938 C 4.730469 4.148438 4.683594 4.292969 4.675781 4.210938 Z M 4.355469 10.410156 C 4.285156 10.34375 4.367188 10.445312 4.355469 10.410156 Z M 5.003906 10.738281 C 5.367188 10.828125 5.359375 10.671875 5.039062 10.636719 C 4.867188 10.472656 4.3125 10.300781 4.804688 10.609375 C 4.839844 10.699219 4.941406 10.691406 5.003906 10.738281 Z M 3.726562 9.878906 C 3.929688 10.035156 4.476562 10.300781 4.011719 9.945312 C 4.164062 9.761719 3.710938 9.660156 3.863281 9.542969 C 3.472656 9.304688 3.554688 9.324219 3.828125 9.332031 C 3.363281 9.125 3.890625 9.140625 3.863281 9.03125 C 3.691406 8.996094 2.980469 8.722656 3.398438 9.058594 C 2.972656 8.839844 3.300781 9.140625 3.171875 9.105469 C 2.734375 8.988281 3.554688 9.433594 3.097656 9.324219 C 3.34375 9.523438 3.773438 9.835938 3.207031 9.535156 C 3.136719 9.644531 3.609375 9.808594 3.726562 9.878906 Z M 4.402344 10.273438 C 5.222656 10.535156 4 9.953125 4.402344 10.273438 Z M 7.867188 12.367188 C 7.882812 12.214844 7.757812 12.515625 7.867188 12.367188 Z M 8.222656 12.523438 C 8.414062 12.339844 8.230469 12.816406 8.539062 12.476562 C 8.539062 12.230469 8.53125 12.09375 8.183594 12.386719 C 8.09375 12.441406 8.046875 12.660156 8.222656 12.523438 Z M 2.570312 8.96875 C 2.515625 8.742188 2.160156 8.742188 2.570312 8.96875 Z M 2.953125 9.222656 C 2.808594 8.988281 2.453125 9.003906 2.953125 9.222656 Z M 5.113281 10.527344 C 5.324219 10.710938 6.089844 10.664062 5.367188 10.546875 C 5.269531 10.390625 4.703125 10.425781 5.113281 10.527344 Z M 8.09375 12.359375 C 8.414062 12.085938 7.773438 12.488281 8.09375 12.359375 Z M 8.769531 12.824219 C 8.769531 12.742188 8.621094 12.871094 8.769531 12.824219 Z M 8.769531 12.707031 C 9.125 12.324219 8.421875 12.722656 8.769531 12.707031 Z M 1.640625 8.183594 C 1.332031 7.746094 1.449219 7.554688 1.148438 7.199219 C 1.09375 6.925781 0.636719 6.308594 0.910156 6.964844 C 1.167969 7.347656 1.238281 7.9375 1.640625 8.183594 Z M 8.648438 12.585938 C 9.316406 12.160156 8.386719 12.394531 8.648438 12.585938 Z M 9.160156 12.777344 C 9.488281 12.496094 8.949219 12.722656 9.160156 12.777344 Z M 2.460938 8.484375 C 2.550781 8.347656 2.214844 8.46875 2.460938 8.484375 Z M 9.050781 12.640625 C 9.378906 12.441406 8.976562 12.46875 8.996094 12.667969 Z M 4.695312 9.898438 C 4.683594 9.761719 4.53125 9.90625 4.695312 9.898438 Z M 4.96875 10.054688 C 4.875 9.878906 4.832031 10.082031 4.96875 10.054688 Z M 9.570312 12.789062 C 9.980469 12.488281 9.324219 12.734375 9.480469 12.84375 Z M 9.414062 12.714844 C 9.742188 12.433594 9.058594 12.832031 9.414062 12.714844 Z M 10.21875 13.242188 C 10.445312 13.097656 9.945312 13.199219 10.21875 13.242188 Z M 2.660156 8.386719 C 2.972656 8.449219 3.875 9.132812 3.335938 8.429688 C 3.0625 8.347656 3.226562 7.683594 2.953125 7.800781 C 3.136719 8.113281 3.097656 8.25 2.707031 8.046875 C 2.214844 7.8125 2.433594 8.167969 2.535156 8.265625 C 2.398438 8.304688 2.707031 8.386719 2.660156 8.386719 Z M 1.292969 7.300781 C 1.347656 7.082031 0.792969 6.070312 1.03125 6.800781 C 1.113281 6.945312 1.101562 7.238281 1.292969 7.300781 Z M 3.808594 8.859375 C 3.65625 8.722656 3.808594 8.839844 3.808594 8.859375 Z M 4.191406 8.941406 C 4.191406 8.703125 3.773438 8.851562 4.191406 8.941406 Z M 7.511719 11.039062 C 7.445312 10.875 7.265625 11.027344 7.511719 11.039062 Z M 7.664062 11.148438 C 7.648438 11.066406 7.574219 11.164062 7.664062 11.148438 Z M 8.988281 11.976562 C 9.105469 11.886719 8.824219 11.96875 8.988281 11.976562 Z M 1.976562 7.472656 C 2.34375 7.335938 1.585938 7.375 1.976562 7.472656 Z M 7.21875 10.78125 C 7.21875 10.546875 6.992188 10.835938 7.21875 10.78125 Z M 1.832031 7.144531 C 2.070312 7.0625 1.621094 7.089844 1.832031 7.144531 Z M 2.507812 7.472656 C 2.507812 7.390625 2.433594 7.5 2.507812 7.472656 Z M 10.726562 12.515625 C 11.027344 12.449219 11.703125 12.660156 11.8125 12.433594 C 11.457031 12.421875 10.5625 12.175781 10.519531 12.488281 L 10.601562 12.503906 Z M 2.726562 7.519531 C 2.726562 7.28125 2.535156 7.519531 2.726562 7.519531 Z M 0.949219 6.296875 C 0.867188 5.84375 0.648438 6.226562 0.949219 6.296875 Z M 1.375 6.398438 C 1.375 6.253906 0.984375 6.269531 1.375 6.398438 Z M 1.613281 6.515625 C 1.539062 6.460938 1.558594 6.589844 1.613281 6.515625 Z M 3.136719 7.492188 C 3.207031 7.429688 2.960938 7.445312 3.136719 7.492188 Z M 1.457031 6.253906 C 1.414062 5.90625 0.964844 6.199219 1.457031 6.253906 Z M 0.582031 5.6875 C 0.574219 5.53125 0.5 5.75 0.582031 5.6875 Z M 0.71875 5.597656 C 0.691406 5.40625 0.601562 5.613281 0.71875 5.597656 Z M 1.429688 6.015625 C 1.730469 5.898438 0.882812 5.769531 1.367188 5.996094 Z M 10.957031 11.902344 C 11.148438 11.722656 10.710938 11.847656 10.957031 11.902344 Z M 12.105469 12.496094 C 12.1875 12.269531 11.914062 12.53125 12.105469 12.496094 Z M 1.503906 5.640625 C 1.53125 5.421875 1.257812 5.6875 1.503906 5.640625 Z M 0.492188 4.96875 C 0.4375 4.65625 0.4375 4.101562 0.964844 4.292969 C 0.265625 4.429688 1.441406 5.160156 1.292969 4.585938 C 1.585938 4.59375 1.867188 4.410156 1.714844 4.695312 C 2.289062 4.628906 2.6875 4.128906 3.246094 4.203125 C 3.671875 4.148438 4.148438 4.101562 4.613281 3.929688 C 5.003906 3.902344 5.367188 3.480469 5.160156 3.234375 C 4.640625 3.199219 4.09375 3.261719 3.507812 3.371094 C 2.871094 3.507812 2.289062 3.765625 1.640625 3.875 C 1.011719 3.957031 1.769531 4.101562 1.585938 4.136719 C 1.257812 4.246094 1.976562 4.328125 1.539062 4.449219 C 1.277344 4.394531 0.992188 4.300781 1.113281 4.019531 C 0.511719 4.101562 -0.0273438 4.347656 0.457031 4.96875 Z M 1.941406 4.230469 C 2.085938 3.699219 2.699219 4.65625 2.179688 4.292969 C 2.113281 4.246094 2.003906 4.210938 1.941406 4.21875 Z M 1.96875 3.972656 C 2.179688 3.820312 2.078125 4.054688 1.96875 3.972656 Z M 2.234375 3.972656 C 2.25 3.738281 2.824219 4.101562 2.324219 4.066406 Z M 2.589844 3.835938 C 2.714844 3.683594 2.625 3.964844 2.589844 3.835938 Z M 2.679688 3.773438 C 2.890625 3.519531 3.902344 3.609375 3.164062 3.746094 C 2.960938 3.601562 2.816406 3.835938 2.679688 3.773438 Z M 3.992188 3.574219 C 3.957031 2.863281 4.640625 3.820312 3.992188 3.574219 Z M 4.367188 3.5625 C 4.492188 3.207031 4.894531 3.425781 4.421875 3.5 C 4.4375 3.535156 4.410156 3.683594 4.367188 3.5625 Z M 1.359375 5.460938 C 1.757812 5.214844 0.921875 5.242188 1.359375 5.460938 Z M 1.660156 5.542969 C 1.796875 5.394531 1.347656 5.488281 1.660156 5.542969 Z M 0.765625 4.914062 C 1.003906 4.738281 0.492188 4.847656 0.765625 4.914062 Z M 12.789062 12.433594 C 12.796875 12.230469 12.605469 12.523438 12.789062 12.433594 Z M 11.566406 11.601562 C 11.601562 11.367188 11.410156 11.621094 11.566406 11.601562 Z M 13.125 12.515625 C 13.445312 12.515625 14.109375 12.414062 13.398438 12.414062 C 13.289062 12.433594 12.75 12.433594 13.125 12.515625 Z M 1.921875 5.394531 C 2.179688 5.378906 2.332031 5.105469 1.867188 5.121094 C 1.148438 5.050781 2.496094 5.367188 1.777344 5.277344 C 1.675781 5.339844 1.914062 5.414062 1.921875 5.394531 Z M 2.152344 5.515625 C 2.125 5.351562 2.070312 5.605469 2.152344 5.515625 Z M 2.425781 4.785156 C 2.542969 4.640625 2.269531 4.75 2.425781 4.785156 Z M 1.550781 3.316406 C 2.023438 3.164062 2.660156 2.980469 2.878906 3.398438 C 2.660156 3.125 2.789062 2.863281 3.007812 3.253906 C 3.308594 3.65625 3.464844 3.070312 3.261719 2.933594 C 3.480469 3.21875 3.738281 3.34375 3.410156 2.953125 C 3.765625 2.523438 2.699219 3.015625 2.453125 3.007812 C 2.34375 3.0625 1.25 3.289062 1.550781 3.316406 Z M 1.824219 2.789062 C 2.097656 2.589844 2.753906 2.917969 2.332031 2.589844 C 2.289062 2.550781 1.402344 2.835938 1.824219 2.789062 Z M 2.796875 2.835938 C 3.117188 2.84375 2.671875 2.414062 3.042969 2.605469 C 2.980469 2.40625 2.605469 2.371094 2.425781 2.289062 C 2.324219 2.46875 2.632812 2.835938 2.796875 2.835938 Z M 1.996094 1.949219 C 2.105469 1.796875 1.804688 2.023438 1.996094 1.949219 Z M 2.398438 2.042969 C 2.898438 1.976562 2.269531 1.824219 2.296875 2.03125 Z M 1.648438 1.457031 C 1.292969 0.992188 2.324219 1.539062 1.960938 1.046875 C 1.660156 0.8125 1.359375 1.320312 1.648438 1.457031 Z M 6.214844 3.917969 C 6.378906 3.628906 5.542969 3.527344 6.105469 3.820312 C 6.160156 3.835938 6.144531 3.9375 6.214844 3.917969 Z M 6.214844 3.917969 "/>
</g>
</svg>
